<svg width="33" height="41" viewBox="0 0 33 41" fill="none" xmlns="http://www.w3.org/2000/svg">
<g clip-path="url(#clip0_58_284)">
<path d="M101.064 60.961L111.954 75.9677H103.34L94.1395 63.1648V75.9677H86.8404V49.0083C86.8544 48.8529 86.899 48.7017 86.9716 48.5635C87.0442 48.4253 87.1433 48.3028 87.2634 48.2031C87.3834 48.1033 87.522 48.0282 87.6711 47.9821C87.8202 47.936 87.977 47.9198 88.1324 47.9344H94.1395V59.8648L103.475 47.9344H111.585L101.064 60.961ZM74.3339 65.2902C72.7398 62.3985 63.0748 47.9512 63.0748 47.9512H55.4177V75.9844H62.5154V58.2763L74.2612 75.9677H81.3254V47.9344H74.3339V65.2902ZM43.5712 47.9512L52.0338 75.9844H44.5556L43.1685 71.2638H33.5146L32.1778 75.9844H24.6661L33 48.8965C33.0785 48.597 33.2614 48.3355 33.5158 48.1591C33.7701 47.9827 34.0792 47.903 34.3871 47.9344L43.5712 47.9512ZM41.9268 65.8495L38.4982 53.3039H38.157L34.7283 65.8495H41.9268ZM23.1336 68.2154C23.1336 73.9037 18.4129 75.9677 12.0087 75.9677H0.626465V49.1929C0.627179 49.0255 0.661148 48.8599 0.726398 48.7057C0.791649 48.5515 0.886883 48.4118 1.00657 48.2947C1.12625 48.1776 1.268 48.0855 1.42359 48.0236C1.57918 47.9618 1.7455 47.9315 1.91291 47.9344H12.1597C17.339 47.9344 22.0205 49.5509 22.0205 54.898C22.0205 58.2539 20.6949 60.6143 17.8424 61.3917C20.8292 61.9734 23.156 64.1659 23.156 68.2098L23.1336 68.2154ZM7.32155 59.1936H11.2368C14.1061 59.1936 15.3702 58.2707 15.3702 56.0782C15.3702 53.8856 14.0166 53.0466 11.4102 53.0466H7.32714L7.32155 59.1936ZM16.2707 67.4939C16.2707 65.1392 14.8836 64.138 11.9304 64.138H7.32155V70.8498H11.6954C14.6039 70.8275 16.2875 69.899 16.2875 67.4939H16.2707ZM85.6882 -21.2873C85.6882 -29.3639 90.5654 -35.9695 99.7943 -35.9695C108.436 -35.9695 113.319 -29.3639 113.319 -21.2873C113.417 -17.6455 112.202 -14.0898 109.896 -11.2698L114.79 -7.57268L110.779 -3.39455L105.22 -7.5503C103.491 -6.87424 101.651 -6.5271 99.7943 -6.52674C91.1695 -6.52674 85.6882 -12.5283 85.6882 -21.2873ZM93.2893 -21.2873C93.2893 -15.2913 95.9909 -12.5003 99.7943 -12.5003C103.05 -12.5003 105.717 -15.2969 105.717 -21.2873C105.717 -27.1937 103.05 -29.9959 99.7943 -29.9959C95.9909 -29.9959 93.2893 -27.1937 93.2893 -21.2873ZM117.693 -35.1864V-18.183C117.693 -10.5762 121.798 -6.64421 130.082 -6.64421C138.594 -6.64421 141.878 -11.734 141.878 -18.8598V-35.1864H134.685V-18.6864C134.685 -15.2578 133.096 -12.5786 129.847 -12.5786C126.334 -12.5786 124.897 -15.1739 124.897 -18.9828V-35.1864H117.693ZM154.166 -12.7352V-19.022H164.312V-24.2181H154.166V-29.7218H165.498V-35.1864H148.617C148.311 -35.1913 148.014 -35.0777 147.789 -34.8694C147.564 -34.661 147.428 -34.3739 147.409 -34.0678V-7.18115H165.8V-12.7744L154.166 -12.7352ZM62.5154 -24.8278L74.2612 -7.13081H81.3254V-35.1864H74.3339V-17.8474C72.7398 -20.7391 63.0748 -35.1864 63.0748 -35.1864H55.4177V-7.15319H62.5154V-24.8278ZM32.1778 -7.13081H24.6661L33 -34.2076C33.0806 -34.5054 33.2642 -34.765 33.5182 -34.9401C33.7722 -35.1153 34.0801 -35.1946 34.3871 -35.164H43.5992L52.0617 -7.13081H44.5556L43.1685 -11.8571H33.5146L32.1778 -7.13081ZM34.7507 -17.2545H41.9492L38.5205 -29.8057H38.1793L34.7507 -17.2545ZM12.031 -7.13641H0.626465V-33.9056C0.627179 -34.073 0.661148 -34.2386 0.726398 -34.3928C0.791649 -34.547 0.886883 -34.6867 1.00657 -34.8038C1.12625 -34.9208 1.268 -35.013 1.42359 -35.0748C1.57918 -35.1367 1.7455 -35.167 1.91291 -35.164H12.1597C17.339 -35.164 22.0205 -33.5532 22.0205 -28.2005C22.0205 -24.8445 20.6949 -22.4898 17.8424 -21.7123C20.8292 -21.153 23.156 -18.9157 23.156 -14.8886C23.156 -9.20031 18.4577 -7.13641 12.031 -7.13641ZM7.32155 -23.9161H11.2368C14.1061 -23.9161 15.3702 -24.8334 15.3702 -27.0259C15.3702 -29.2184 14.0166 -30.0574 11.4102 -30.0574H7.32714L7.32155 -23.9161ZM11.6954 -12.2542C14.6039 -12.2542 16.2875 -13.1883 16.2875 -15.6101C16.2875 -18.032 14.9004 -18.9661 11.9471 -18.9661H7.32155V-12.2542H11.6954ZM99.7831 -42.8995C103.928 -42.8995 107.3 -44.2978 109.113 -45.6961L106.316 -51.0208C104.918 -50.0028 103.698 -49.0073 100.65 -49.0073C95.5714 -49.0073 93.1999 -52.6149 93.1999 -57.6935C93.1999 -62.6435 95.6888 -66.0106 100.516 -66.0106C102.585 -65.9646 104.611 -65.4176 106.422 -64.4166L109.219 -69.5959C106.982 -71.0781 103.592 -72.0793 99.9061 -72.0793C90.0956 -72.0793 85.6882 -65.1828 85.6882 -57.5369C85.6882 -49.891 89.9222 -42.8995 99.7831 -42.8995ZM62.5154 -61.1389L74.2612 -43.442H81.3254V-71.4752H74.3339V-54.1362C72.7398 -57.0223 63.0748 -71.4752 63.0748 -71.4752H55.4177V-43.442H62.5154V-61.1389ZM32.1778 -43.442H24.6661L33 -70.5188C33.0796 -70.8172 33.263 -71.0774 33.5172 -71.2527C33.7715 -71.4281 34.0799 -71.5069 34.3871 -71.4752H43.5992L52.0617 -43.442H44.5556L43.1685 -48.1683H33.5146L32.1778 -43.442ZM34.7507 -53.5657H41.9492L38.5205 -66.1169H38.1793L34.7507 -53.5657ZM12.031 -43.4476H0.626465V-70.2223C0.627167 -70.3895 0.661171 -70.5549 0.726488 -70.7088C0.791805 -70.8626 0.887127 -71.002 1.00689 -71.1186C1.12665 -71.2352 1.26845 -71.3269 1.42401 -71.3881C1.57957 -71.4493 1.74577 -71.4789 1.91291 -71.4752H12.1597C17.339 -71.4752 22.0205 -69.8644 22.0205 -64.5117C22.0205 -61.1557 20.6949 -58.801 17.8424 -58.0235C20.8292 -57.4642 23.156 -55.2269 23.156 -51.1998C23.156 -45.5115 18.4577 -43.4476 12.031 -43.4476ZM7.32155 -60.2273H11.2368C14.1061 -60.2273 15.3702 -61.1501 15.3702 -63.3427C15.3702 -65.5352 14.0166 -66.3742 11.4102 -66.3742H7.32714L7.32155 -60.2273ZM11.6954 -48.6101C14.6039 -48.6101 16.2875 -49.5386 16.2875 -51.9661C16.2875 -54.3935 14.9004 -55.322 11.9471 -55.322H7.32155V-48.6101H11.6954ZM118.677 -43.4644H111.165L119.499 -70.5411C119.578 -70.8391 119.76 -71.0992 120.013 -71.2746C120.267 -71.45 120.574 -71.5291 120.881 -71.4976H130.093L138.555 -43.4644H131.055L129.668 -48.1906H120.019L118.677 -43.4644ZM121.255 -53.5881H128.454L125.025 -66.1169H124.684L121.255 -53.5881ZM32.5917 34.7288H0.626465V41.8994H32.5917V34.7288ZM81.9687 1.16952H91.919C97.3221 1.16952 101.953 2.28818 101.953 9.27411C101.953 12.4007 100.225 15.6 96.9809 16.2489C98.5973 16.8082 100.225 18.8665 101.109 21.1149L104.314 29.2027H96.7627L93.4404 21.4897C92.758 19.918 92.2826 19.1405 90.8451 19.1405H87.9254V29.2083H80.878V2.28816C80.9072 2.00609 81.0308 1.74214 81.2287 1.5391C81.4267 1.33606 81.6874 1.20583 81.9687 1.16952ZM87.9199 13.6033H91.4436C93.5522 13.6033 95.2078 12.4846 95.2078 9.81665C95.2078 7.14868 93.5299 6.57257 91.4436 6.57257H87.9199V13.6033ZM38.1066 1.16952V29.2027H45.3051V2.28816C45.2949 2.00229 45.1798 1.7302 44.9817 1.52384C44.7836 1.31749 44.5164 1.19134 44.2312 1.16952H38.1066ZM75.4582 28.8224V14.3192C75.4735 14.161 75.4563 14.0013 75.4076 13.85C75.3589 13.6987 75.2796 13.559 75.1748 13.4395C75.07 13.32 74.9418 13.2232 74.7981 13.1552C74.6545 13.0872 74.4984 13.0493 74.3395 13.0439H65.217V18.7714H68.6848V23.7102C67.6481 23.8443 66.6034 23.9059 65.5582 23.8948C60.2838 23.8948 57.4256 20.5389 57.4256 15.1302C57.4256 10.0572 59.8922 6.55019 65.1778 6.55019C67.4234 6.63711 69.6323 7.1476 71.6883 8.05477L74.5185 3.23342C72.2309 1.68969 68.6848 0.610198 64.6409 0.610198C55.4512 0.610198 49.9419 6.5502 49.9419 15.1526C49.9419 24.7673 55.4512 29.7453 65.9049 29.7453C69.1122 29.7364 72.3113 29.4199 75.4582 28.8V28.8224ZM133.348 15.1526C133.348 23.2683 128.482 29.7453 119.885 29.7453C110.707 29.7453 105.852 23.2683 105.852 15.1526C105.852 7.03681 110.707 0.610198 119.885 0.610198C128.482 0.610198 133.348 7.09274 133.348 15.1526ZM125.786 15.1526C125.786 9.2741 123.129 6.57257 119.885 6.57257C116.104 6.57257 113.414 9.2741 113.414 15.1526C113.414 21.031 116.104 23.8053 119.885 23.8053C123.129 23.7829 125.786 21.0926 125.786 15.1526ZM149.031 11.696C146.61 10.9688 144.68 10.2305 144.68 8.7763C144.68 7.32207 146.184 6.29851 148.841 6.29851C151.045 6.29851 153.014 7.19342 154.938 8.34003L158.825 3.91019C157.058 2.23223 153.59 0.632575 149.11 0.632575C142.331 0.632575 137.123 3.91021 137.123 9.77749C137.123 15.2197 141.833 16.8305 145.877 17.9883C149.233 18.9448 151.783 19.5265 151.783 21.4114C151.783 23.4194 149.496 23.7717 147.683 23.7717C144.49 23.7717 141.022 22.0938 139.238 21.031L136.044 26.697C138.007 28.0505 142.409 29.7453 147.146 29.7453C154.552 29.7453 159.172 25.7741 159.172 19.9907C159.172 14.3527 153.321 12.9992 149.031 11.6736V11.696ZM7.79697 12.9992L14.6263 29.1804H18.4577L25.3932 12.9992V29.1804H32.5693V1.16952H23.7209L16.8188 16.9816L10.2244 1.16952H0.626465V29.2027H7.79697V12.9992Z" fill="url(#paint0_linear_58_284)"/>
</g>
<defs>
<linearGradient id="paint0_linear_58_284" x1="-3.49574" y1="-66.6147" x2="140.093" y2="76.9744" gradientUnits="userSpaceOnUse">
<stop stop-color="#FF8C28"/>
<stop offset="1" stop-color="#D9007E"/>
</linearGradient>
<clipPath id="clip0_58_284">
<rect width="33" height="40.8305" fill="white" transform="translate(0 0.169495)"/>
</clipPath>
</defs>
</svg>
