<svg width="62" height="39" viewBox="0 0 62 39" fill="none" xmlns="http://www.w3.org/2000/svg">
<path d="M27.999 17.1111C28.9515 16.0634 30.5778 15.9816 31.6316 16.9285L41.9945 26.2396C43.0483 27.1864 43.1305 28.8034 42.1781 29.8511C41.2257 30.8987 39.5993 30.9804 38.5455 30.0335L28.1826 20.7225C27.1288 19.7757 27.0466 18.1588 27.999 17.1111Z" fill="#EE4F4E"/>
<path d="M39.141 6.48132L28.1362 16.8836C27.1068 17.8567 27.0658 19.4751 28.0445 20.4985C29.0233 21.5219 30.6512 21.5628 31.6806 20.5897L42.6854 10.1874C43.7148 9.21434 43.7559 7.59589 42.7771 6.57248C41.7983 5.54908 40.1704 5.50826 39.141 6.48132Z" fill="#EE4F4E"/>
<path d="M29.207 15.6768L7.16186 15.6768C5.5385 15.6768 4.2225 16.9851 4.2225 18.599C4.2225 20.2129 5.5385 21.5212 7.16186 21.5212L29.207 21.5212C30.8304 21.5212 32.1464 20.2129 32.1464 18.599C32.1464 16.9851 30.8304 15.6768 29.207 15.6768Z" fill="#EE4F4E"/>
<path d="M23.3283 4.71948L7.16186 4.71948C5.5385 4.71948 4.2225 6.0278 4.2225 7.6417C4.2225 9.25559 5.5385 10.5639 7.16186 10.5639L23.3283 10.5639C24.9517 10.5639 26.2676 9.25559 26.2676 7.6417C26.2676 6.0278 24.9517 4.71948 23.3283 4.71948Z" fill="#EE4F4E"/>
<path d="M23.3283 26.6365L7.16186 26.6365C5.5385 26.6365 4.2225 27.9448 4.2225 29.5587C4.2225 31.1726 5.5385 32.4809 7.16186 32.4809H23.3283C24.9517 32.4809 26.2676 31.1726 26.2676 29.5587C26.2676 27.9448 24.9517 26.6365 23.3283 26.6365Z" fill="#EE4F4E"/>
<path d="M52.7205 21.5212C54.3439 21.5212 55.6599 20.2129 55.6599 18.599C55.6599 16.9851 54.3439 15.6768 52.7205 15.6768C51.0972 15.6768 49.7812 16.9851 49.7812 18.599C49.7812 20.2129 51.0972 21.5212 52.7205 21.5212Z" fill="#EE4F4E"/>
</svg>
